<svg width="128" height="128" viewBox="0 0 128 128" fill="none" xmlns="http://www.w3.org/2000/svg">
    <g clip-path="url(#clip0_4_33)">
        <path d="M32.0626 0.606873C32.4273 0.703864 32.4273 0.703864 32.7994 0.802814C33.5992 1.0163 34.3977 1.23419 35.1963 1.45215C35.7614 1.60397 36.3266 1.75551 36.8919 1.9068C38.3818 2.30637 39.8706 2.70968 41.3593 3.11378C42.8442 3.51615 44.3301 3.91488 45.8159 4.31396C54.2513 6.58217 54.2513 6.58217 58.3886 7.72961C58.779 7.83754 59.1694 7.94545 59.5598 8.05335C60.2549 8.24549 60.9493 8.4397 61.6434 8.63534C61.9417 8.71799 62.24 8.80065 62.5473 8.8858C62.8006 8.95689 63.0538 9.02799 63.3148 9.10123C64.0071 9.25154 64.5464 9.33987 65.25 9.25C65.7586 8.90488 65.7586 8.90488 66.2014 8.40088C66.4669 8.12309 66.4669 8.12309 66.7378 7.83969C66.9258 7.63736 67.1139 7.43503 67.3076 7.22656C67.7135 6.80484 68.1196 6.3833 68.5259 5.96191C69.1625 5.2943 69.797 4.6249 70.428 3.95203C71.0386 3.3036 71.6568 2.66326 72.2764 2.02344C72.4619 1.82111 72.6474 1.61877 72.8385 1.41031C73.729 0.498995 74.4335 -0.134715 75.7327 -0.26709C78.3354 0.040463 80.5521 3.2862 82.3228 5.10692C82.9638 5.76599 83.6066 6.42334 84.2492 7.08082C84.5946 7.43418 84.9398 7.78762 85.285 8.14114C87.5038 10.4128 89.7347 12.6726 91.9651 14.9328C94.1326 17.1294 96.2961 19.3296 98.4474 21.542C100.162 23.3054 101.885 25.0602 103.619 26.8054C104.533 27.727 105.444 28.6523 106.344 29.5883C107.191 30.4689 108.049 31.3374 108.916 32.1984C109.23 32.5143 109.54 32.8342 109.846 33.1584C111.406 34.8101 112.619 35.862 114.953 36.0261C115.789 36.0452 116.621 36.0221 117.457 35.9935C120.132 36.0254 122.777 37.8021 124.688 39.5469C127.215 42.2571 128.117 45.4013 128.097 49.0138C128.099 49.4549 128.099 49.4549 128.101 49.9049C128.104 50.7144 128.104 51.5238 128.102 52.3333C128.101 53.2089 128.104 54.0845 128.106 54.9601C128.111 56.673 128.111 58.3858 128.109 60.0987C128.108 61.4916 128.109 62.8845 128.11 64.2775C128.11 64.4761 128.11 64.6747 128.111 64.8794C128.111 65.2829 128.111 65.6865 128.112 66.09C128.115 69.8705 128.114 73.6509 128.111 77.4314C128.109 80.8855 128.112 84.3397 128.118 87.7939C128.124 91.3456 128.126 94.8973 128.125 98.449C128.124 100.441 128.124 102.433 128.129 104.425C128.132 106.121 128.132 107.817 128.128 109.513C128.126 110.377 128.125 111.241 128.129 112.105C128.133 113.044 128.13 113.983 128.125 114.923C128.128 115.192 128.13 115.462 128.133 115.74C128.1 119.172 126.76 122.162 124.453 124.688C121.27 127.657 117.761 128.113 113.619 128.097C113.174 128.098 112.728 128.099 112.283 128.101C111.063 128.105 109.843 128.104 108.623 128.102C107.306 128.101 105.989 128.104 104.671 128.106C102.092 128.111 99.5129 128.111 96.9338 128.109C94.8372 128.108 92.7406 128.109 90.644 128.11C90.1962 128.11 90.1962 128.11 89.7393 128.111C89.1328 128.111 88.5263 128.111 87.9198 128.112C82.2337 128.115 76.5477 128.114 70.8615 128.111C65.6614 128.109 60.4613 128.112 55.2611 128.118C49.9195 128.124 44.5778 128.126 39.2362 128.125C36.2381 128.124 33.24 128.124 30.2419 128.129C27.6897 128.132 25.1376 128.133 22.5854 128.128C21.2838 128.126 19.9822 128.125 18.6805 128.129C17.4878 128.133 16.2952 128.132 15.1026 128.127C14.6722 128.126 14.2419 128.127 13.8116 128.129C9.72971 128.152 6.39928 127.272 3.31251 124.453C0.760566 121.717 -0.116614 118.561 -0.0969124 114.918C-0.0982588 114.617 -0.0996069 114.315 -0.100994 114.005C-0.103937 113.175 -0.103551 112.345 -0.1017 111.515C-0.100512 110.618 -0.103649 109.72 -0.106205 108.822C-0.110494 107.066 -0.110714 105.311 -0.109402 103.555C-0.10839 102.127 -0.108754 100.699 -0.110088 99.2715C-0.110275 99.0679 -0.110464 98.8644 -0.110657 98.6546C-0.11104 98.2411 -0.111423 97.8275 -0.111809 97.4139C-0.115237 93.5397 -0.113882 89.6654 -0.111012 85.7912C-0.108528 82.2503 -0.111767 78.7095 -0.117748 75.1687C-0.12385 71.5285 -0.126246 67.8884 -0.124584 64.2482C-0.123712 62.2063 -0.124262 60.1645 -0.128647 58.1225C-0.132333 56.3845 -0.132478 54.6464 -0.128128 52.9083C-0.126004 52.0224 -0.125454 51.1365 -0.129292 50.2506C-0.133408 49.2883 -0.129706 48.326 -0.125294 47.3637C-0.127695 47.0865 -0.130094 46.8092 -0.132568 46.5236C-0.104424 43.5317 0.918122 40.9744 2.94434 38.7656C4.97838 36.8356 7.38979 35.9552 10.1524 35.9756C10.3341 35.9759 10.5158 35.9763 10.703 35.9767C11.2812 35.9781 11.8593 35.9812 12.4375 35.9844C12.8304 35.9856 13.2233 35.9868 13.6162 35.9878C14.5775 35.9903 15.5387 35.9951 16.5 36C16.5567 35.7521 16.6133 35.5041 16.6717 35.2487C17.3345 32.3747 18.0758 29.5253 18.8399 26.6768C18.9682 26.1964 19.0965 25.7159 19.2248 25.2355C19.5604 23.9786 19.8969 22.7219 20.2335 21.4652C20.6358 19.9625 21.0373 18.4596 21.4387 16.9567C21.7634 15.7414 22.0886 14.5261 22.4149 13.3112C22.9865 11.1816 23.5539 9.05124 24.1021 6.91541C24.2362 6.39686 24.3706 5.87836 24.505 5.35988C24.6244 4.89558 24.7407 4.43049 24.8569 3.96538C25.2247 2.54782 25.5525 1.383 26.5 0.25C28.1489 -0.574453 30.3905 0.143658 32.0626 0.606873ZM30 5.75C28.4512 11.3118 26.9535 16.8868 25.4656 22.4652C24.8971 24.5964 24.328 26.7274 23.7588 28.8584C23.6955 29.0954 23.6322 29.3323 23.567 29.5765C22.7283 32.7169 21.8859 35.8562 21.0383 38.9942C20.8764 39.5937 20.7146 40.1932 20.5529 40.7927C20.4488 41.1785 20.3447 41.5643 20.2406 41.9501C20.1903 42.1367 20.1399 42.3232 20.0881 42.5155C19.7928 43.6094 19.4967 44.7031 19.1999 45.7966C19.0622 46.305 18.9248 46.8135 18.7876 47.322C18.6222 47.9349 18.4562 48.5477 18.2893 49.1602C18.1817 49.5603 18.1817 49.5603 18.0718 49.9684C18.0092 50.1995 17.9466 50.4305 17.8822 50.6686C17.7223 51.2725 17.7223 51.2725 17.75 52C18.74 52 19.73 52 20.75 52C21.7503 48.5473 22.7069 45.0851 23.6281 41.6104C23.8443 40.7952 24.0612 39.9801 24.2783 39.1651C24.8942 36.8523 25.509 34.5392 26.1231 32.2259C26.5017 30.7996 26.8812 29.3737 27.2613 27.9478C27.4046 27.4096 27.5475 26.8713 27.6901 26.3329C29.7732 18.4657 29.7732 18.4657 31 17.75C31.7842 17.7031 31.7842 17.7031 32.6719 17.75C34.4202 17.779 35.8728 17.7602 37.2402 16.5752C38.1381 15.6111 38.7239 14.6097 39.2803 13.4248C39.6005 12.8056 39.8599 12.5345 40.5 12.25C42.4134 12.0848 44.1017 12.6188 45.9326 13.1338C46.263 13.2244 46.5934 13.3146 46.924 13.4046C48.1428 13.7371 49.3601 14.0749 50.5773 14.4129C51.6097 14.6994 52.6427 14.9837 53.6766 15.265C54.1592 15.3973 54.641 15.5328 55.1227 15.6685C55.4165 15.7486 55.7102 15.8287 56.0129 15.9112C56.2705 15.9828 56.5282 16.0544 56.7937 16.1282C57.5436 16.2575 58.0254 16.2192 58.75 16C59.2672 15.6211 59.2672 15.6211 59.7031 15.1406C59.8543 14.9863 60.0054 14.8319 60.1611 14.6729C60.5521 14.2753 60.5521 14.2753 60.5 13.75C60.2348 13.6793 59.9696 13.6085 59.6963 13.5357C55.8571 12.5119 52.018 11.4881 48.1788 10.4644C47.9272 10.3972 47.6755 10.3301 47.4162 10.261C46.911 10.1263 46.4057 9.99152 45.9005 9.85679C44.6581 9.52544 43.4156 9.19418 42.173 8.8631C39.9854 8.28011 37.7979 7.69625 35.6116 7.1084C35.0867 6.9675 34.5617 6.82665 34.0368 6.68582C33.5624 6.55834 33.0882 6.4302 32.6141 6.30203C32.338 6.22798 32.0619 6.15393 31.7775 6.07764C31.5405 6.01374 31.3035 5.94984 31.0593 5.884C30.5148 5.73058 30.5148 5.73058 30 5.75ZM75.0126 6.95599C74.8544 7.11346 74.6963 7.27093 74.5334 7.43317C74.3581 7.60906 74.1827 7.78496 74.0021 7.96618C73.7246 8.24309 73.7246 8.24309 73.4415 8.52559C72.8163 9.14974 72.1921 9.77479 71.5678 10.3998C71.122 10.8453 70.6762 11.2907 70.2303 11.736C69.1418 12.8235 68.0539 13.9116 66.9663 14.9999C66.0828 15.884 65.199 16.7678 64.315 17.6515C64.1895 17.777 64.0639 17.9025 63.9346 18.0318C63.6796 18.2868 63.4246 18.5417 63.1696 18.7966C60.7753 21.1902 58.3818 23.5845 55.9886 25.979C53.9327 28.036 51.8762 30.0924 49.8192 32.1483C47.4335 34.5326 45.0482 36.9173 42.6636 39.3027C42.4096 39.5568 42.1555 39.8109 41.9015 40.065C41.7765 40.1901 41.6515 40.3151 41.5227 40.444C40.6395 41.3274 39.7561 42.2105 38.8725 43.0935C37.6844 44.2807 36.497 45.4687 35.3101 46.6571C34.8729 47.0946 34.4355 47.5319 33.9979 47.969C33.4034 48.5628 32.8097 49.1573 32.2162 49.7521C31.9523 50.0151 31.9523 50.0151 31.6832 50.2834C31.5257 50.4415 31.3682 50.5996 31.206 50.7626C31.0687 50.8999 30.9313 51.0373 30.7899 51.1788C30.4721 51.4588 30.4721 51.4588 30.5 51.75C32.1938 51.9997 33.9418 52.2313 35.4147 51.2035C36.3787 50.4122 37.2312 49.5116 38.0902 48.6099C38.4266 48.272 38.7638 47.935 39.1019 47.5988C40.0121 46.6887 40.9096 45.7667 41.8052 44.8422C42.7455 43.8758 43.6974 42.9209 44.6482 41.9647C46.4449 40.1543 48.2314 38.334 50.0142 36.5098C52.243 34.2302 54.4847 31.9635 56.7266 29.6968C59.0127 27.3848 61.2975 25.0717 63.574 22.7503C63.9225 22.3951 64.2711 22.04 64.6196 21.6848C65.2667 21.0255 65.9129 20.3653 66.5587 19.7047C66.8446 19.4132 67.1306 19.1217 67.4165 18.8303C67.5456 18.6978 67.6747 18.5653 67.8077 18.4287C68.6432 17.5792 68.9758 17.2729 70.1875 17.1719C71.291 17.1838 71.8768 17.5708 72.75 18.25C73.9108 19.1206 75.0742 19.2849 76.5 19.25C77.6357 19.0221 78.4752 18.5411 79.375 17.8281C80.1476 17.2553 80.7493 17.0155 81.7187 17.1095C83.7964 17.659 85.7167 20.4303 87.2256 21.9424C87.508 22.2246 87.7904 22.5067 88.0728 22.7889C88.6605 23.3761 89.2477 23.9639 89.8345 24.5519C90.5875 25.3063 91.3415 26.0595 92.0959 26.8124C92.6773 27.393 93.2582 27.9741 93.8388 28.5554C94.1169 28.8336 94.3951 29.1116 94.6735 29.3894C95.0606 29.7758 95.4469 30.1631 95.833 30.5506C96.0529 30.7707 96.2728 30.9908 96.4994 31.2176C97.2284 31.9929 97.376 32.5778 97.374 33.6494C97.2112 34.4381 96.8484 34.9338 96.3906 35.5938C95.5029 36.8957 95.1107 37.9172 95.25 39.5C95.5376 40.8115 96.1113 41.7428 97 42.75C97.4132 43.5764 97.4388 44.3633 97.25 45.25C96.9335 45.7158 96.9335 45.7158 96.5068 46.1787C96.2687 46.4381 96.2687 46.4381 96.0258 46.7026C95.1205 47.6451 94.1976 48.5684 93.2656 49.4844C92.8826 49.8611 92.5001 50.2383 92.1182 50.6162C91.8678 50.8622 91.8678 50.8622 91.6124 51.1132C91.2215 51.4421 91.2215 51.4421 91.25 51.75C92.9835 51.9776 94.5599 52.1539 96.1122 51.2454C96.9746 50.5364 97.7271 49.724 98.4844 48.9062C98.7692 48.6139 99.055 48.3225 99.3416 48.0319C100.087 47.271 100.82 46.4989 101.551 45.7237C102.301 44.9322 103.063 44.1522 103.824 43.3711C105.311 41.8416 106.785 40.3 108.25 38.75C106.859 37.0553 105.311 35.5255 103.761 33.9786C103.458 33.6754 103.155 33.3722 102.853 33.0689C102.035 32.2498 101.216 31.4314 100.397 30.6132C99.5394 29.7565 98.6826 28.8991 97.8257 28.0418C96.3885 26.6041 94.9508 25.167 93.5128 23.7302C91.8482 22.067 90.1845 20.4029 88.5213 18.7383C87.0931 17.3089 85.6644 15.8801 84.2353 14.4516C83.3817 13.5984 82.5283 12.7451 81.6754 11.8913C80.875 11.0902 80.0741 10.2898 79.2727 9.48983C78.9779 9.19535 78.6833 8.90066 78.3889 8.60574C77.989 8.20512 77.5883 7.80527 77.1874 7.40561C76.8505 7.06888 76.8505 7.06888 76.5068 6.72535C75.7368 6.00313 75.6951 6.27362 75.0126 6.95599ZM43 17.75C42.7056 18.0761 42.4129 18.4039 42.131 18.7408C40.0695 21.1898 37.8898 22.307 34.6787 22.6689C33.9788 22.9222 33.9788 22.9222 33.7905 23.4499C33.7342 23.6358 33.6778 23.8216 33.6197 24.0131C33.5571 24.2166 33.4944 24.4201 33.4299 24.6297C33.3705 24.8344 33.3112 25.0391 33.25 25.25C33.1988 25.4252 33.1476 25.6004 33.0949 25.7809C32.9442 26.31 32.7993 26.8403 32.656 27.3714C32.6019 27.5701 32.5477 27.7687 32.4919 27.9734C32.3155 28.6217 32.14 29.2703 31.9649 29.9189C31.9045 30.1418 31.8442 30.3647 31.7821 30.5943C31.4639 31.7704 31.1465 32.9468 30.8298 34.1234C30.5027 35.3381 30.1726 36.552 29.8419 37.7658C29.5877 38.7011 29.3356 39.637 29.0841 40.573C28.9633 41.0211 28.8417 41.4689 28.7192 41.9165C28.5487 42.5405 28.3813 43.1653 28.2146 43.7903C28.1379 44.0672 28.1379 44.0672 28.0596 44.3496C27.8217 45.2546 27.7275 45.8577 28 46.75C31.3589 43.4028 34.7164 40.0541 38.0722 36.7038C39.6302 35.1483 41.1888 33.5932 42.7484 32.0393C44.1073 30.6854 45.4654 29.3305 46.8224 27.9746C47.5414 27.2563 48.2608 26.5385 48.9812 25.8217C49.6586 25.1476 50.3348 24.4725 51.0102 23.7964C51.2589 23.5478 51.508 23.2997 51.7576 23.052C52.097 22.7151 52.4348 22.3764 52.7724 22.0377C52.9623 21.8483 53.1522 21.6588 53.3479 21.4637C53.8046 21.0393 53.8046 21.0393 53.75 20.5C52.2996 20.1076 50.849 19.7159 49.3982 19.3251C48.9044 19.1919 48.4107 19.0585 47.917 18.9249C47.2085 18.7332 46.4998 18.5423 45.791 18.3516C45.5694 18.2914 45.3478 18.2313 45.1194 18.1693C44.8117 18.0867 44.8117 18.0867 44.4977 18.0024C44.3167 17.9536 44.1357 17.9047 43.9493 17.8544C43.4957 17.7311 43.4957 17.7311 43 17.75ZM70.5 23C66.7833 26.7109 63.0673 30.4224 59.3522 34.1349C57.6273 35.8585 55.9022 37.5818 54.1765 39.3046C52.673 40.8056 51.17 42.3071 49.6674 43.809C48.8713 44.6048 48.075 45.4004 47.2781 46.1955C46.529 46.9429 45.7805 47.6909 45.0324 48.4393C44.7569 48.7147 44.4812 48.99 44.2052 49.265C43.8302 49.6388 43.456 50.0133 43.082 50.388C42.8718 50.5979 42.6616 50.8078 42.4451 51.0241C41.9715 51.4218 41.9715 51.4218 42 51.75C44.145 51.75 46.29 51.75 48.5 51.75C48.83 50.8425 49.16 49.935 49.5 49C50.2813 47.7656 50.2813 47.7656 50.6582 47.2432C51.0151 46.7621 51.0151 46.7621 51.2324 46.2178C51.5721 45.624 51.8809 45.5209 52.5 45.25C52.8354 45.0133 53.1686 44.7735 53.5 44.5312C56.4845 42.5609 59.9271 42.2489 63.3926 42.9238C66.4629 43.8583 68.7665 45.8331 70.5 48.5C71.0491 49.5564 71.4703 50.5937 71.75 51.75C79.0397 52.8497 79.0397 52.8497 85.6905 50.5248C87.9076 48.6187 89.7766 46.3533 91.5 44C91.43 43.8281 91.36 43.6561 91.2878 43.4789C91.1967 43.2535 91.1056 43.0281 91.0117 42.7959C90.8758 42.4606 90.8758 42.4606 90.7371 42.1186C89.7803 39.6219 90.1727 37.1586 91.0557 34.7119C91.2635 33.9505 91.2689 33.7205 91 33C90.6059 32.4875 90.6059 32.4875 90.0964 31.9875C89.8097 31.6936 89.8097 31.6936 89.5172 31.3937C89.3091 31.1849 89.1011 30.976 88.8867 30.7607C88.6736 30.5452 88.4605 30.3296 88.241 30.1074C87.7897 29.6524 87.3374 29.1983 86.8842 28.7452C86.1898 28.0491 85.5016 27.3473 84.8135 26.645C84.3747 26.2041 83.9356 25.7635 83.4961 25.3232C83.2901 25.1118 83.084 24.9004 82.8718 24.6826C82.5803 24.3946 82.5803 24.3946 82.283 24.1008C82.1133 23.93 81.9436 23.7593 81.7688 23.5834C81.2613 23.182 81.2613 23.182 80.6036 23.31C80.3048 23.4041 80.3048 23.4041 80 23.5C79.7722 23.5622 79.5443 23.6244 79.3096 23.6885C79.0682 23.7552 78.8268 23.8219 78.5781 23.8906C75.6393 24.6199 73.2739 24.1218 70.5 23ZM6.25001 43C5.11318 44.5276 5.01035 46.1476 5.25001 48C5.6393 49.455 6.46853 50.3626 7.69727 51.2031C9.16674 51.9924 10.6129 52.0069 12.25 52C12.6433 50.5946 13.0349 49.1888 13.4249 47.7825C13.5579 47.3042 13.6912 46.826 13.8251 46.3479C14.0174 45.6606 14.2081 44.973 14.3984 44.2852C14.4586 44.0716 14.5188 43.858 14.5807 43.638C14.6358 43.4378 14.6908 43.2377 14.7476 43.0315C14.7964 42.8561 14.8453 42.6806 14.8956 42.4999C15.0341 41.922 15.0341 41.922 15 41C10.2202 40.7155 10.2202 40.7155 6.25001 43ZM110.654 43.3428C110.417 43.5837 110.18 43.8241 109.942 44.064C109.321 44.6935 108.707 45.3302 108.095 45.9687C107.468 46.6196 106.833 47.2626 106.199 47.9067C105.278 48.8457 104.359 49.7871 103.447 50.7348C103.264 50.9252 103.08 51.1156 102.891 51.3118C102.472 51.6832 102.472 51.6832 102.5 52C102.682 52.0216 102.864 52.0432 103.051 52.0654C106.577 52.5581 109.621 53.9206 111.897 56.7295C113.665 59.3398 114.319 61.7553 114.354 64.8506C114.358 65.12 114.363 65.3894 114.368 65.667C114.383 66.5228 114.395 67.3786 114.406 68.2344C114.416 68.8166 114.426 69.3988 114.436 69.981C114.459 71.4039 114.481 72.8269 114.5 74.25C115.143 74.2602 115.786 74.2676 116.429 74.2734C116.61 74.2766 116.791 74.2797 116.978 74.283C118.74 74.295 119.732 73.9846 120.989 72.7822C122.483 71.1724 122.825 69.9119 122.823 67.7595C122.824 67.5362 122.826 67.3128 122.828 67.0827C122.832 66.3455 122.833 65.6083 122.834 64.8711C122.836 64.357 122.837 63.8429 122.839 63.3288C122.842 62.2511 122.843 61.1735 122.843 60.0958C122.843 58.7186 122.849 57.3415 122.858 55.9643C122.864 54.9022 122.865 53.8401 122.864 52.778C122.865 52.2705 122.867 51.763 122.871 51.2555C122.876 50.5435 122.874 49.8318 122.871 49.1199C122.874 48.9125 122.877 48.7052 122.88 48.4915C122.856 46.2804 121.974 44.5315 120.479 42.9307C119.129 41.7165 117.51 41.2707 115.75 41C115.562 40.9668 115.375 40.9336 115.181 40.8993C113.027 40.69 112.062 41.8584 110.654 43.3428ZM54.3496 50.7529C53.9521 51.2169 53.9521 51.2169 54 51.75C58.0425 51.75 62.085 51.75 66.25 51.75C65.5733 50.0582 64.596 48.9857 62.9688 48.1406C59.4993 46.7812 56.6247 48.0777 54.3496 50.7529ZM5.25001 55.75C5.22718 63.5464 5.20949 71.3429 5.19894 79.1393C5.19769 80.0602 5.1964 80.9811 5.19508 81.902C5.19481 82.0854 5.19455 82.2687 5.19428 82.4576C5.18993 85.4242 5.18205 88.3908 5.17286 91.3574C5.1635 94.4025 5.15795 97.4476 5.15592 100.493C5.15455 102.371 5.15022 104.249 5.14209 106.128C5.13617 107.569 5.13555 109.01 5.1369 110.452C5.13663 111.042 5.13464 111.633 5.1308 112.223C5.12581 113.03 5.12703 113.837 5.12975 114.645C5.12684 114.877 5.12393 115.11 5.12093 115.35C5.1418 117.643 5.96261 119.401 7.52052 121.068C8.58462 122.026 9.62544 122.469 11.0357 122.636C11.3539 122.673 11.6721 122.711 12 122.75C12.0001 122.602 12.0003 122.453 12.0004 122.301C12.0042 118.691 12.0148 115.081 12.033 111.471C12.0417 109.726 12.048 107.98 12.0489 106.234C12.0497 104.55 12.0571 102.866 12.0684 101.182C12.0716 100.539 12.0727 99.8959 12.0715 99.2528C12.0703 98.3531 12.0768 97.4537 12.0852 96.554C12.083 96.2873 12.0808 96.0207 12.0786 95.7459C12.1067 93.9376 12.1067 93.9376 12.8531 92.9601C13.6619 92.3849 14.0568 92.3153 15.0166 92.377C15.855 92.5904 16.2451 93.0768 16.75 93.75C16.9937 94.4877 17.0335 95.1689 17.0396 95.9427C17.042 96.1818 17.0445 96.4209 17.047 96.6672C17.0491 97.0581 17.0491 97.058 17.0513 97.4568C17.0538 97.7325 17.0563 98.0082 17.0588 98.2922C17.0667 99.2039 17.0729 100.116 17.0791 101.027C17.0843 101.659 17.0895 102.291 17.0949 102.923C17.1072 104.417 17.1186 105.91 17.1294 107.404C17.1417 109.105 17.1554 110.806 17.1693 112.506C17.1977 116.004 17.2244 119.502 17.25 123C28.0041 123.011 38.7582 123.02 49.5123 123.026C50.7821 123.026 52.052 123.027 53.3218 123.027C53.5746 123.028 53.8274 123.028 54.0878 123.028C58.1803 123.03 62.2727 123.034 66.3651 123.039C70.5648 123.043 74.7645 123.046 78.9642 123.047C81.5554 123.048 84.1465 123.05 86.7376 123.054C88.5148 123.057 90.2919 123.057 92.0691 123.057C93.0942 123.056 94.1193 123.057 95.1444 123.06C96.084 123.062 97.0235 123.062 97.963 123.06C98.4617 123.06 98.9604 123.062 99.4591 123.065C102.313 123.055 104.977 122.834 107.188 120.858C108.942 118.964 109.401 116.982 109.348 114.46C109.346 114.202 109.345 113.945 109.343 113.679C109.338 112.864 109.325 112.049 109.313 111.234C109.307 110.679 109.303 110.123 109.299 109.567C109.288 108.211 109.271 106.856 109.25 105.5C109.004 105.499 108.758 105.499 108.505 105.498C102.514 105.483 96.5232 105.464 90.5324 105.441C87.6352 105.43 84.7381 105.42 81.841 105.413C79.315 105.408 76.7891 105.399 74.2631 105.388C72.9264 105.382 71.5897 105.377 70.2529 105.376C68.993 105.374 67.7331 105.369 66.4732 105.361C66.0125 105.359 65.5517 105.358 65.091 105.359C61.8995 105.361 58.9454 105.189 56.0938 103.594C55.936 103.506 55.7782 103.419 55.6156 103.329C52.0367 101.277 49.5882 97.9836 48.5 94C47.7621 90.727 47.8672 86.8233 49.25 83.75C49.3502 83.5189 49.4505 83.2879 49.5537 83.0498C51.3842 79.2987 54.5883 76.7475 58.4413 75.2698C61.0439 74.4016 63.7935 74.4136 66.508 74.4211C67.1147 74.4219 67.721 74.4159 68.3276 74.4097C68.7181 74.4091 69.1086 74.4089 69.499 74.4092C69.678 74.4069 69.8569 74.4046 70.0412 74.4022C71.2098 74.4129 72.0056 74.6383 73 75.25C73.5984 76.0388 73.5806 76.7829 73.5 77.75C73.1982 78.5857 73.0199 78.7368 72.25 79.25C71.5424 79.3015 70.8574 79.3253 70.1494 79.3271C69.7212 79.3335 69.293 79.3398 68.8648 79.3462C68.1934 79.3533 67.5221 79.3593 66.8508 79.3641C62.7766 79.3985 59.3247 79.6318 56.1777 82.5264C53.7956 85.0468 53.1226 87.5393 53.1807 90.915C53.2952 93.5451 54.6237 96.0053 56.5313 97.7969C58.7234 99.5525 60.9779 100.287 63.7311 100.287C63.959 100.288 64.187 100.289 64.4218 100.29C65.1874 100.292 65.9529 100.293 66.7185 100.294C67.2667 100.296 67.8149 100.297 68.3631 100.299C70.1649 100.304 71.9667 100.307 73.7686 100.31C74.3889 100.311 75.0092 100.312 75.6295 100.313C78.3764 100.317 81.1234 100.321 83.8703 100.323C84.3727 100.323 84.8752 100.323 85.3776 100.324C85.544 100.324 85.7103 100.324 85.8816 100.324C88.575 100.326 91.2683 100.333 93.9617 100.341C96.7288 100.349 99.496 100.353 102.263 100.354C103.816 100.355 105.369 100.357 106.922 100.363C108.383 100.369 109.844 100.37 111.305 100.368C111.841 100.368 112.377 100.369 112.912 100.373C113.645 100.377 114.377 100.375 115.11 100.372C115.321 100.375 115.532 100.377 115.749 100.38C117.802 100.358 119.607 99.6082 121.111 98.1966C122.918 96.1236 122.919 93.8443 122.872 91.2324C122.87 90.8493 122.868 90.4661 122.867 90.0829C122.862 89.0825 122.85 88.0822 122.836 87.0819C122.823 86.0579 122.817 85.0338 122.811 84.0098C122.798 82.0064 122.776 80.0032 122.75 78C122.575 78.0884 122.399 78.1768 122.218 78.2679C119.108 79.6136 115.935 79.4267 112.6 79.4072C111.957 79.4074 111.314 79.4081 110.671 79.4091C109.331 79.4098 107.991 79.4063 106.651 79.3992C105.103 79.3912 103.555 79.3912 102.008 79.3955C100.512 79.3995 99.0172 79.3978 97.5219 79.3935C96.8877 79.3923 96.2536 79.3924 95.6194 79.3939C94.7362 79.3953 93.8533 79.3902 92.9701 79.3834C92.577 79.3858 92.577 79.3858 92.1759 79.3883C90.4076 79.3649 90.4076 79.3649 89.5956 78.7729C89.0016 77.8742 88.9149 77.3346 89 76.25C89.3295 75.4869 89.5472 75.1053 90.2897 74.7198C91.1579 74.4511 91.908 74.4297 92.8172 74.4203C92.9954 74.4178 93.1736 74.4153 93.3572 74.4127C93.9429 74.405 94.5285 74.4007 95.1143 74.3965C95.5217 74.3918 95.929 74.3869 96.3364 74.3818C97.4062 74.369 98.476 74.3591 99.5458 74.3498C100.638 74.3398 101.731 74.327 102.824 74.3145C104.966 74.2903 107.108 74.2692 109.25 74.25C109.275 72.6535 109.293 71.057 109.305 69.4603C109.31 68.9178 109.317 68.3754 109.325 67.8331C109.338 67.0505 109.343 66.268 109.348 65.4854C109.353 65.2454 109.358 65.0055 109.363 64.7583C109.364 62.405 108.58 60.6444 106.979 58.9307C104.62 56.8079 101.413 56.927 98.431 56.9371C98.0435 56.9366 97.656 56.9358 97.2684 56.9349C96.2075 56.9329 95.1467 56.9339 94.0858 56.9355C92.9401 56.9366 91.7943 56.9349 90.6486 56.9334C88.6642 56.9313 86.6798 56.9308 84.6954 56.9314C81.823 56.9322 78.9507 56.9293 76.0783 56.9253C71.4135 56.9188 66.7487 56.9138 62.0839 56.9104C61.8049 56.9102 61.5258 56.91 61.2383 56.9098C57.2785 56.907 53.3186 56.9057 49.3588 56.9049C48.9406 56.9049 48.9406 56.9049 48.5139 56.9048C48.0961 56.9047 48.0961 56.9047 47.67 56.9046C43.0233 56.9037 38.3766 56.8989 33.7299 56.891C30.8655 56.8863 28.0011 56.8848 25.1367 56.8875C23.1734 56.889 21.21 56.887 19.2466 56.8822C18.1146 56.8795 16.9827 56.8785 15.8506 56.8818C14.8129 56.8848 13.7753 56.8832 12.7376 56.878C12.3636 56.8769 11.9896 56.8775 11.6156 56.88C9.32992 56.8941 7.38085 56.6305 5.25001 55.75ZM120.781 104.359C119.244 105.022 117.983 105.294 116.313 105.391C116.051 105.407 116.051 105.407 115.784 105.423C115.356 105.45 114.928 105.475 114.5 105.5C114.499 105.65 114.498 105.8 114.497 105.954C114.487 107.528 114.469 109.102 114.448 110.676C114.441 111.262 114.436 111.847 114.432 112.433C114.427 113.28 114.415 114.126 114.402 114.973C114.402 115.36 114.402 115.36 114.401 115.754C114.349 118.409 113.498 120.682 112.25 123C115.354 123.088 118.258 123.029 120.688 120.858C122.561 118.836 122.896 116.758 122.848 114.077C122.846 113.632 122.846 113.632 122.843 113.179C122.838 112.239 122.825 111.299 122.813 110.359C122.807 109.719 122.803 109.079 122.799 108.439C122.788 106.876 122.771 105.313 122.75 103.75C122.011 103.75 121.458 104.068 120.781 104.359Z" fill="white"/>
        <path d="M68.2148 85.1514C69.7452 86.8067 70.1478 88.5344 70.0889 90.7578C69.8947 92.3797 69.1544 93.8456 68 95C65.9458 96.4667 64.2723 96.6925 61.75 96.5C60.0749 96.094 58.7683 95.1297 57.75 93.75C56.845 92.1569 56.4704 90.569 56.75 88.75C57.2383 86.9849 57.9748 85.3819 59.583 84.3906C62.5434 82.8283 65.5903 82.8852 68.2148 85.1514ZM62 89.5C62.1436 90.4827 62.1436 90.4827 62.75 91.25C63.6492 91.1692 63.6492 91.1692 64.5 91C64.6712 90.2855 64.6712 90.2855 64.75 89.5C64.3363 88.7483 64.3363 88.7483 63.7969 88.5156C62.962 88.4918 62.594 88.9555 62 89.5Z" fill="white"/>
        <path d="M83 74.5C83.7555 75.0144 84.1725 75.3749 84.3613 76.2891C84.4126 77.3153 84.3342 77.8653 83.7812 78.75C82.9045 79.5752 82.2339 79.6019 81.0654 79.585C80.5 79.5 80.5 79.5 79.75 78.9844C79.148 78.1001 79 77.5686 79 76.5C79.3203 75.5202 79.5936 75.1102 80.4375 74.5156C81.4385 74.1884 81.9895 74.206 83 74.5Z" fill="white"/>
        <path d="M15.5 82.5C16.2025 82.9484 16.6273 83.2547 17 84C17.1052 84.7648 17.1213 85.4867 17 86.25C16.4546 86.9389 16.032 87.359 15.25 87.75C13.9328 87.8997 13.2788 87.5635 12.25 86.75C11.8178 85.8857 11.8776 84.9451 12 84C12.9035 82.5544 13.8276 82.2597 15.5 82.5Z" fill="white"/>
    </g>
    <defs>
        <clipPath id="clip0_4_33">
            <rect width="128" height="128" fill="white"/>
        </clipPath>
    </defs>
</svg>
